<?xml version="1.0" encoding="UTF-8" standalone="no"?>
<svg
   xmlns:dc="http://purl.org/dc/elements/1.1/"
   xmlns:cc="http://creativecommons.org/ns#"
   xmlns:rdf="http://www.w3.org/1999/02/22-rdf-syntax-ns#"
   xmlns:svg="http://www.w3.org/2000/svg"
   xmlns="http://www.w3.org/2000/svg"
   width="29"
   height="25"
   version="1.1">
  <path
     style="fill:#ffffff;fill-opacity:1;stroke:#000000;stroke-width:1;"
     d="M 6.297994,0.49997154 C 2.776818,3.0686915 0.485494,7.1827115 0.485494,11.874971 c 0,5.51398 3.173883,10.29852 7.78125,12.625 l 12.6875,0 c 4.607367,-2.32648 7.78125,-7.11102 7.78125,-12.625 0,-4.6922595 -2.291324,-8.8062795 -5.8125,-11.37499946 l -16.625,0 z"/>
  <rect
     style="fill:#000000;fill-opacity:1;stroke:none;"
     width="1.9375"
     height="7.75"
     x="8.4229946"
     y="6.0096774" />
  <rect
     style="fill:#000000;fill-opacity:1;stroke:none;"
     width="2"
     height="6"
     x="19.485497"
     y="6.8846774" />
  <path
     style="fill:#000000;fill-opacity:1;stroke:none;"
     d="m 15.047994,22.406221 c -1.334594,0 -2.5,-0.76385 -2.5,-1.71875 l 0,-3.25 5,0 0,3.25 c 0,0.9549 -1.165406,1.71875 -2.5,1.71875 z"/>
</svg>
